<mxfile host="65bd71144e">
    <diagram id="l8hXMBHkgcEJcSW0mbfh" name="Page-1">
        <mxGraphModel dx="582" dy="-381" grid="1" gridSize="10" guides="1" tooltips="1" connect="1" arrows="1" fold="1" page="1" pageScale="1" pageWidth="1169" pageHeight="827" math="0" shadow="0">
            <root>
                <mxCell id="0"/>
                <mxCell id="1" parent="0"/>
                <mxCell id="DvvudGPlCwvvZzpePOiA-63" value="" style="group;movable=1;resizable=1;rotatable=1;deletable=1;editable=1;connectable=1;fontSize=13;fontStyle=1;fontColor=#504e4e;" parent="1" vertex="1" connectable="0">
                    <mxGeometry x="676" y="1044" width="100" height="50" as="geometry"/>
                </mxCell>
                <mxCell id="DvvudGPlCwvvZzpePOiA-64" value="Client 3" style="fontColor=#504e4e;verticalAlign=top;verticalLabelPosition=bottom;labelPosition=center;align=center;html=1;outlineConnect=0;fillColor=#CCCCCC;strokeColor=#6881B3;gradientColor=none;gradientDirection=north;strokeWidth=2;shape=mxgraph.networks.mobile;direction=south;movable=1;resizable=1;rotatable=1;deletable=1;editable=1;connectable=1;fontSize=13;fontStyle=1" parent="DvvudGPlCwvvZzpePOiA-63" vertex="1">
                    <mxGeometry width="100" height="50" as="geometry"/>
                </mxCell>
                <mxCell id="DvvudGPlCwvvZzpePOiA-65" value="" style="shape=image;verticalLabelPosition=bottom;labelBackgroundColor=default;verticalAlign=top;aspect=fixed;imageAspect=0;image=https://upload.wikimedia.org/wikipedia/commons/2/28/MultiLayerPerceptron.png;movable=1;resizable=1;rotatable=1;deletable=1;editable=1;connectable=1;fontSize=13;fontStyle=1;fontColor=#504e4e;" parent="DvvudGPlCwvvZzpePOiA-63" vertex="1">
                    <mxGeometry x="11.919999999999959" y="7.5" width="76.15" height="35" as="geometry"/>
                </mxCell>
                <mxCell id="DvvudGPlCwvvZzpePOiA-165" style="edgeStyle=none;shape=flexArrow;rounded=1;sketch=0;jumpStyle=none;jumpSize=50;orthogonalLoop=1;jettySize=auto;html=1;exitX=0;exitY=0.5;exitDx=0;exitDy=0;entryX=1;entryY=1;entryDx=0;entryDy=0;entryPerimeter=0;shadow=0;strokeWidth=1;startArrow=block;startFill=1;endArrow=block;endFill=0;sourcePerimeterSpacing=100;targetPerimeterSpacing=5;endSize=4;startSize=6.881818181818183;exitPerimeter=0;fontSize=13;fontStyle=1;fontColor=#504e4e;startWidth=11.818181818181818;" parent="1" source="DvvudGPlCwvvZzpePOiA-151" target="DvvudGPlCwvvZzpePOiA-143" edge="1">
                    <mxGeometry relative="1" as="geometry"/>
                </mxCell>
                <mxCell id="DvvudGPlCwvvZzpePOiA-163" style="edgeStyle=none;shape=flexArrow;rounded=1;sketch=0;jumpStyle=none;jumpSize=50;orthogonalLoop=1;jettySize=auto;html=1;exitX=0;exitY=0.5;exitDx=0;exitDy=0;entryX=0;entryY=1;entryDx=0;entryDy=0;entryPerimeter=0;shadow=0;strokeWidth=1;startArrow=block;startFill=1;endArrow=block;endFill=0;sourcePerimeterSpacing=100;targetPerimeterSpacing=0;endSize=6.432258064516129;startSize=6.432258064516129;endWidth=9.67741935483871;startWidth=9.67741935483871;fontSize=13;fontStyle=1;fontColor=#504e4e;exitPerimeter=0;" parent="1" source="DvvudGPlCwvvZzpePOiA-175" target="DvvudGPlCwvvZzpePOiA-143" edge="1">
                    <mxGeometry relative="1" as="geometry"/>
                </mxCell>
                <mxCell id="DvvudGPlCwvvZzpePOiA-96" value="" style="group;movable=0;resizable=0;rotatable=0;deletable=0;editable=0;connectable=0;fontSize=13;fontStyle=3;fontColor=#504e4e;" parent="1" vertex="1" connectable="0">
                    <mxGeometry x="362" y="1196" width="182" height="69" as="geometry"/>
                </mxCell>
                <mxCell id="DvvudGPlCwvvZzpePOiA-98" value="" style="shape=image;verticalLabelPosition=bottom;labelBackgroundColor=default;verticalAlign=top;aspect=fixed;imageAspect=0;image=https://upload.wikimedia.org/wikipedia/commons/2/28/MultiLayerPerceptron.png;movable=0;resizable=0;rotatable=0;deletable=0;editable=0;connectable=0;" parent="DvvudGPlCwvvZzpePOiA-96" vertex="1">
                    <mxGeometry x="11.92999999999995" y="7.5" width="76.15" height="35" as="geometry"/>
                </mxCell>
                <mxCell id="DvvudGPlCwvvZzpePOiA-174" value="" style="group;movable=0;resizable=0;rotatable=0;deletable=0;editable=0;connectable=0;fontSize=13;fontStyle=3;fontColor=#504e4e;" parent="DvvudGPlCwvvZzpePOiA-96" vertex="1" connectable="0">
                    <mxGeometry width="100" height="50" as="geometry"/>
                </mxCell>
                <mxCell id="DvvudGPlCwvvZzpePOiA-175" value="Client 2" style="fontColor=#504e4e;verticalAlign=top;verticalLabelPosition=bottom;labelPosition=center;align=center;html=1;outlineConnect=0;fillColor=#CCCCCC;strokeColor=#6881B3;gradientColor=none;gradientDirection=north;strokeWidth=2;shape=mxgraph.networks.mobile;direction=south;movable=1;resizable=1;rotatable=1;deletable=1;editable=1;connectable=1;fontSize=13;fontStyle=1" parent="DvvudGPlCwvvZzpePOiA-174" vertex="1">
                    <mxGeometry width="100" height="50" as="geometry"/>
                </mxCell>
                <mxCell id="DvvudGPlCwvvZzpePOiA-176" value="" style="shape=image;verticalLabelPosition=bottom;labelBackgroundColor=default;verticalAlign=top;aspect=fixed;imageAspect=0;image=https://upload.wikimedia.org/wikipedia/commons/2/28/MultiLayerPerceptron.png;movable=0;resizable=0;rotatable=0;deletable=0;editable=0;connectable=0;fontSize=13;fontStyle=3;fontColor=#504e4e;" parent="DvvudGPlCwvvZzpePOiA-174" vertex="1">
                    <mxGeometry x="11.92999999999995" y="7.5" width="76.15" height="35" as="geometry"/>
                </mxCell>
                <mxCell id="DvvudGPlCwvvZzpePOiA-99" value="" style="group;movable=1;resizable=1;rotatable=1;deletable=1;editable=1;connectable=1;fontSize=13;fontStyle=1;fontColor=#504e4e;" parent="1" vertex="1" connectable="0">
                    <mxGeometry x="242" y="1044" width="100" height="50" as="geometry"/>
                </mxCell>
                <mxCell id="DvvudGPlCwvvZzpePOiA-100" value="Client 1" style="fontColor=#504e4e;verticalAlign=top;verticalLabelPosition=bottom;labelPosition=center;align=center;html=1;outlineConnect=0;fillColor=#CCCCCC;strokeColor=#6881B3;gradientColor=none;gradientDirection=north;strokeWidth=2;shape=mxgraph.networks.mobile;direction=south;movable=1;resizable=1;rotatable=1;deletable=1;editable=1;connectable=1;fontSize=13;fontStyle=1" parent="DvvudGPlCwvvZzpePOiA-99" vertex="1">
                    <mxGeometry width="100" height="50" as="geometry"/>
                </mxCell>
                <mxCell id="DvvudGPlCwvvZzpePOiA-101" value="" style="shape=image;verticalLabelPosition=bottom;labelBackgroundColor=default;verticalAlign=top;aspect=fixed;imageAspect=0;image=https://upload.wikimedia.org/wikipedia/commons/2/28/MultiLayerPerceptron.png;movable=1;resizable=1;rotatable=1;deletable=1;editable=1;connectable=1;fontSize=13;fontStyle=1;fontColor=#504e4e;" parent="DvvudGPlCwvvZzpePOiA-99" vertex="1">
                    <mxGeometry x="11.92999999999995" y="7.5" width="76.15" height="35" as="geometry"/>
                </mxCell>
                <mxCell id="DvvudGPlCwvvZzpePOiA-170" style="edgeStyle=orthogonalEdgeStyle;rounded=1;sketch=0;jumpStyle=none;jumpSize=50;orthogonalLoop=1;jettySize=auto;html=1;exitX=0;exitY=0.5;exitDx=0;exitDy=0;exitPerimeter=0;entryX=0.5;entryY=1;entryDx=0;entryDy=0;entryPerimeter=0;shadow=0;strokeWidth=1;fontFamily=Helvetica;fontSize=13;fontColor=#504e4e;startArrow=none;startFill=0;endArrow=block;endFill=0;sourcePerimeterSpacing=100;targetPerimeterSpacing=0;elbow=vertical;curved=1;fontStyle=1" parent="1" source="DvvudGPlCwvvZzpePOiA-141" target="DvvudGPlCwvvZzpePOiA-160" edge="1">
                    <mxGeometry relative="1" as="geometry"/>
                </mxCell>
                <mxCell id="DvvudGPlCwvvZzpePOiA-171" style="edgeStyle=orthogonalEdgeStyle;curved=1;rounded=1;sketch=0;jumpStyle=none;jumpSize=50;orthogonalLoop=1;jettySize=auto;html=1;exitX=0;exitY=0.5;exitDx=0;exitDy=0;exitPerimeter=0;entryX=0.5;entryY=1;entryDx=0;entryDy=0;entryPerimeter=0;shadow=0;strokeWidth=1;fontFamily=Helvetica;fontSize=13;fontColor=#504e4e;startArrow=none;startFill=0;endArrow=block;endFill=0;sourcePerimeterSpacing=100;targetPerimeterSpacing=0;elbow=vertical;fontStyle=1" parent="1" source="DvvudGPlCwvvZzpePOiA-141" target="DvvudGPlCwvvZzpePOiA-159" edge="1">
                    <mxGeometry relative="1" as="geometry"/>
                </mxCell>
                <mxCell id="DvvudGPlCwvvZzpePOiA-172" style="edgeStyle=orthogonalEdgeStyle;curved=1;rounded=1;sketch=0;jumpStyle=none;jumpSize=50;orthogonalLoop=1;jettySize=auto;html=1;exitX=1;exitY=0.5;exitDx=0;exitDy=0;exitPerimeter=0;shadow=0;strokeWidth=1;fontFamily=Helvetica;fontSize=13;fontColor=#504e4e;startArrow=none;startFill=0;endArrow=block;endFill=0;sourcePerimeterSpacing=100;targetPerimeterSpacing=0;elbow=vertical;fontStyle=1" parent="1" source="DvvudGPlCwvvZzpePOiA-141" target="DvvudGPlCwvvZzpePOiA-158" edge="1">
                    <mxGeometry relative="1" as="geometry"/>
                </mxCell>
                <mxCell id="DvvudGPlCwvvZzpePOiA-173" style="edgeStyle=orthogonalEdgeStyle;curved=1;rounded=1;sketch=0;jumpStyle=none;jumpSize=50;orthogonalLoop=1;jettySize=auto;html=1;exitX=1;exitY=0.5;exitDx=0;exitDy=0;exitPerimeter=0;entryX=0.5;entryY=1;entryDx=0;entryDy=0;entryPerimeter=0;shadow=0;strokeWidth=1;fontFamily=Helvetica;fontSize=13;fontColor=#504e4e;startArrow=none;startFill=0;endArrow=block;endFill=0;sourcePerimeterSpacing=100;targetPerimeterSpacing=0;elbow=vertical;fontStyle=1" parent="1" source="DvvudGPlCwvvZzpePOiA-141" target="DvvudGPlCwvvZzpePOiA-157" edge="1">
                    <mxGeometry relative="1" as="geometry"/>
                </mxCell>
                <mxCell id="DvvudGPlCwvvZzpePOiA-141" value="MNIST Dataset&lt;br style=&quot;font-size: 13px;&quot;&gt;" style="fontColor=#504e4e;verticalAlign=top;verticalLabelPosition=bottom;labelPosition=center;align=center;html=1;outlineConnect=0;fillColor=#CCCCCC;strokeColor=#6881B3;gradientColor=none;gradientDirection=north;strokeWidth=2;shape=mxgraph.networks.storage;fontSize=13;fontStyle=1" parent="1" vertex="1">
                    <mxGeometry x="480" y="1340" width="60" height="70" as="geometry"/>
                </mxCell>
                <mxCell id="DvvudGPlCwvvZzpePOiA-143" value="Central Model" style="fontColor=#504e4e;verticalAlign=bottom;verticalLabelPosition=top;labelPosition=center;align=center;html=1;outlineConnect=0;fillColor=#CCCCCC;strokeColor=#6881B3;gradientColor=none;gradientDirection=north;strokeWidth=2;shape=mxgraph.networks.server;fontSize=13;fontStyle=1" parent="1" vertex="1">
                    <mxGeometry x="465" y="920" width="90" height="100" as="geometry"/>
                </mxCell>
                <mxCell id="DvvudGPlCwvvZzpePOiA-159" value="" style="fontColor=#504e4e;verticalAlign=top;verticalLabelPosition=bottom;labelPosition=center;align=center;html=1;outlineConnect=0;fillColor=#CCCCCC;strokeColor=#6881B3;gradientColor=none;gradientDirection=north;strokeWidth=2;shape=mxgraph.networks.storage;fontSize=13;fontStyle=1" parent="1" vertex="1">
                    <mxGeometry x="324" y="1246" width="38" height="40" as="geometry"/>
                </mxCell>
                <mxCell id="DvvudGPlCwvvZzpePOiA-158" value="" style="fontColor=#504e4e;verticalAlign=top;verticalLabelPosition=bottom;labelPosition=center;align=center;html=1;outlineConnect=0;fillColor=#CCCCCC;strokeColor=#6881B3;gradientColor=none;gradientDirection=north;strokeWidth=2;shape=mxgraph.networks.storage;fontSize=13;fontStyle=1" parent="1" vertex="1">
                    <mxGeometry x="655" y="1246" width="38" height="40" as="geometry"/>
                </mxCell>
                <mxCell id="DvvudGPlCwvvZzpePOiA-157" value="" style="fontColor=#504e4e;verticalAlign=top;verticalLabelPosition=bottom;labelPosition=center;align=center;html=1;outlineConnect=0;fillColor=#CCCCCC;strokeColor=#6881B3;gradientColor=none;gradientDirection=north;strokeWidth=2;shape=mxgraph.networks.storage;fontSize=13;fontStyle=1" parent="1" vertex="1">
                    <mxGeometry x="776" y="1094" width="38" height="40" as="geometry"/>
                </mxCell>
                <mxCell id="DvvudGPlCwvvZzpePOiA-160" value="" style="fontColor=#504e4e;verticalAlign=top;verticalLabelPosition=bottom;labelPosition=center;align=center;html=1;outlineConnect=0;fillColor=#CCCCCC;strokeColor=#6881B3;gradientColor=none;gradientDirection=north;strokeWidth=2;shape=mxgraph.networks.storage;fontSize=13;fontStyle=1" parent="1" vertex="1">
                    <mxGeometry x="204" y="1094" width="38" height="40" as="geometry"/>
                </mxCell>
                <mxCell id="DvvudGPlCwvvZzpePOiA-161" style="rounded=1;orthogonalLoop=1;jettySize=auto;html=1;exitX=0.05;exitY=0.03;exitDx=0;exitDy=0;exitPerimeter=0;entryX=0;entryY=0.5;entryDx=0;entryDy=0;entryPerimeter=0;shadow=0;strokeWidth=1;sourcePerimeterSpacing=100;targetPerimeterSpacing=0;startArrow=block;jumpStyle=none;jumpSize=50;startFill=1;endArrow=block;endFill=0;shape=flexArrow;endSize=7.032258064516129;startSize=5.225806451612903;startWidth=9.032258064516128;endWidth=9.032258064516128;fontSize=13;fontStyle=1;fontColor=#504e4e;" parent="1" source="DvvudGPlCwvvZzpePOiA-100" target="DvvudGPlCwvvZzpePOiA-143" edge="1">
                    <mxGeometry relative="1" as="geometry"/>
                </mxCell>
                <mxCell id="DvvudGPlCwvvZzpePOiA-166" style="edgeStyle=none;shape=flexArrow;rounded=1;sketch=0;jumpStyle=none;jumpSize=50;orthogonalLoop=1;jettySize=auto;html=1;exitX=0.05;exitY=0.97;exitDx=0;exitDy=0;exitPerimeter=0;entryX=1;entryY=0.5;entryDx=0;entryDy=0;entryPerimeter=0;shadow=0;strokeWidth=1;startArrow=block;startFill=1;endArrow=block;endFill=0;sourcePerimeterSpacing=100;targetPerimeterSpacing=0;endSize=6.896774193548387;startSize=6.896774193548387;endWidth=10.32258064516129;startWidth=10.32258064516129;fontSize=13;fontStyle=1;fontColor=#504e4e;" parent="1" source="DvvudGPlCwvvZzpePOiA-64" target="DvvudGPlCwvvZzpePOiA-143" edge="1">
                    <mxGeometry relative="1" as="geometry"/>
                </mxCell>
                <mxCell id="DvvudGPlCwvvZzpePOiA-150" value="" style="group;fontSize=13;fontStyle=1;fontColor=#504e4e;" parent="1" vertex="1" connectable="0">
                    <mxGeometry x="555" y="1196" width="100" height="50" as="geometry"/>
                </mxCell>
                <mxCell id="DvvudGPlCwvvZzpePOiA-151" value="Client 3" style="fontColor=#504e4e;verticalAlign=top;verticalLabelPosition=bottom;labelPosition=center;align=center;html=1;outlineConnect=0;fillColor=#CCCCCC;strokeColor=#6881B3;gradientColor=none;gradientDirection=north;strokeWidth=2;shape=mxgraph.networks.mobile;direction=south;fontSize=13;fontStyle=1" parent="DvvudGPlCwvvZzpePOiA-150" vertex="1">
                    <mxGeometry width="100" height="50" as="geometry"/>
                </mxCell>
                <mxCell id="DvvudGPlCwvvZzpePOiA-152" value="" style="shape=image;verticalLabelPosition=bottom;labelBackgroundColor=default;verticalAlign=top;aspect=fixed;imageAspect=0;image=https://upload.wikimedia.org/wikipedia/commons/2/28/MultiLayerPerceptron.png;fontSize=13;fontStyle=1;fontColor=#504e4e;" parent="DvvudGPlCwvvZzpePOiA-150" vertex="1">
                    <mxGeometry x="11.919999999999959" y="7.5" width="76.15" height="35" as="geometry"/>
                </mxCell>
                <mxCell id="DvvudGPlCwvvZzpePOiA-178" value="&lt;ul style=&quot;font-size: 10px;&quot;&gt;&lt;li style=&quot;font-size: 10px;&quot;&gt;Model Aggregation&lt;/li&gt;&lt;li style=&quot;font-size: 10px;&quot;&gt;Testing&lt;/li&gt;&lt;/ul&gt;" style="text;strokeColor=none;align=left;fillColor=none;html=1;verticalAlign=middle;whiteSpace=wrap;rounded=0;fillStyle=solid;fontFamily=Helvetica;fontSize=10;fontColor=#504e4e;fontStyle=2" parent="1" vertex="1">
                    <mxGeometry x="529" y="920" width="164" height="30" as="geometry"/>
                </mxCell>
                <mxCell id="DvvudGPlCwvvZzpePOiA-180" value="&lt;ul&gt;&lt;li&gt;Local Model Training&lt;/li&gt;&lt;/ul&gt;" style="text;strokeColor=none;align=left;fillColor=none;html=1;verticalAlign=middle;whiteSpace=wrap;rounded=0;fillStyle=solid;fontFamily=Helvetica;fontSize=10;fontColor=#504e4e;fontStyle=2" parent="1" vertex="1">
                    <mxGeometry x="750" y="1054" width="130" height="30" as="geometry"/>
                </mxCell>
                <mxCell id="DvvudGPlCwvvZzpePOiA-181" value="&lt;ul&gt;&lt;li&gt;Local Model Training&lt;/li&gt;&lt;/ul&gt;" style="text;strokeColor=none;align=left;fillColor=none;html=1;verticalAlign=middle;whiteSpace=wrap;rounded=0;fillStyle=solid;fontFamily=Helvetica;fontSize=10;fontColor=#504e4e;fontStyle=2" parent="1" vertex="1">
                    <mxGeometry x="630" y="1206" width="130" height="30" as="geometry"/>
                </mxCell>
                <mxCell id="DvvudGPlCwvvZzpePOiA-182" value="&lt;ul&gt;&lt;li&gt;Local Model Training&lt;/li&gt;&lt;/ul&gt;" style="text;strokeColor=none;align=left;fillColor=none;html=1;verticalAlign=middle;whiteSpace=wrap;rounded=0;fillStyle=solid;fontFamily=Helvetica;fontSize=10;fontColor=#504e4e;fontStyle=2" parent="1" vertex="1">
                    <mxGeometry x="260" y="1210" width="130" height="30" as="geometry"/>
                </mxCell>
                <mxCell id="DvvudGPlCwvvZzpePOiA-183" value="&lt;ul&gt;&lt;li&gt;Local Model Training&lt;/li&gt;&lt;/ul&gt;" style="text;strokeColor=none;align=left;fillColor=none;html=1;verticalAlign=middle;whiteSpace=wrap;rounded=0;fillStyle=solid;fontFamily=Helvetica;fontSize=10;fontColor=#504e4e;fontStyle=2" parent="1" vertex="1">
                    <mxGeometry x="140" y="1054" width="130" height="30" as="geometry"/>
                </mxCell>
                <mxCell id="DvvudGPlCwvvZzpePOiA-185" value="Model Update&amp;nbsp;⇨" style="text;strokeColor=none;align=center;fillColor=none;html=1;verticalAlign=middle;whiteSpace=wrap;rounded=0;fillStyle=solid;fontFamily=Helvetica;fontSize=8;fontColor=#504e4e;fontStyle=2;rotation=-30;" parent="1" vertex="1">
                    <mxGeometry x="326" y="986" width="130" height="30" as="geometry"/>
                </mxCell>
                <mxCell id="DvvudGPlCwvvZzpePOiA-188" value="Model Update&amp;nbsp;⇨" style="text;strokeColor=none;align=center;fillColor=none;html=1;verticalAlign=middle;whiteSpace=wrap;rounded=0;fillStyle=solid;fontFamily=Helvetica;fontSize=8;fontColor=#504e4e;fontStyle=2;rotation=-75;" parent="1" vertex="1">
                    <mxGeometry x="366" y="1079" width="130" height="30" as="geometry"/>
                </mxCell>
                <mxCell id="DvvudGPlCwvvZzpePOiA-189" value="⇦&amp;nbsp;Model Update&amp;nbsp;" style="text;strokeColor=none;align=center;fillColor=none;html=1;verticalAlign=middle;whiteSpace=wrap;rounded=0;fillStyle=solid;fontFamily=Helvetica;fontSize=8;fontColor=#504e4e;fontStyle=2;rotation=75;" parent="1" vertex="1">
                    <mxGeometry x="500" y="1080" width="130" height="30" as="geometry"/>
                </mxCell>
                <mxCell id="DvvudGPlCwvvZzpePOiA-190" value="⇦&amp;nbsp;Model Update&amp;nbsp;" style="text;strokeColor=none;align=center;fillColor=none;html=1;verticalAlign=middle;whiteSpace=wrap;rounded=0;fillStyle=solid;fontFamily=Helvetica;fontSize=8;fontColor=#504e4e;fontStyle=2;rotation=32;" parent="1" vertex="1">
                    <mxGeometry x="540" y="1000" width="130" height="30" as="geometry"/>
                </mxCell>
                <mxCell id="DvvudGPlCwvvZzpePOiA-192" value="Global Update&amp;nbsp;⇨" style="text;strokeColor=none;align=center;fillColor=none;html=1;verticalAlign=middle;whiteSpace=wrap;rounded=0;fillStyle=solid;fontFamily=Helvetica;fontSize=8;fontColor=#504e4e;fontStyle=2;rotation=32;" parent="1" vertex="1">
                    <mxGeometry x="558" y="984" width="130" height="30" as="geometry"/>
                </mxCell>
                <mxCell id="DvvudGPlCwvvZzpePOiA-193" value="Global Update&amp;nbsp;⇨" style="text;strokeColor=none;align=center;fillColor=none;html=1;verticalAlign=middle;whiteSpace=wrap;rounded=0;fillStyle=solid;fontFamily=Helvetica;fontSize=8;fontColor=#504e4e;fontStyle=2;rotation=74;" parent="1" vertex="1">
                    <mxGeometry x="523" y="1082" width="130" height="30" as="geometry"/>
                </mxCell>
                <mxCell id="DvvudGPlCwvvZzpePOiA-195" value="⇦ Global Update" style="text;strokeColor=none;align=center;fillColor=none;html=1;verticalAlign=middle;whiteSpace=wrap;rounded=0;fillStyle=solid;fontFamily=Helvetica;fontSize=8;fontColor=#504e4e;fontStyle=2;rotation=-73;" parent="1" vertex="1">
                    <mxGeometry x="385" y="1091" width="130" height="30" as="geometry"/>
                </mxCell>
                <mxCell id="DvvudGPlCwvvZzpePOiA-196" value="⇦ Global Update" style="text;strokeColor=none;align=center;fillColor=none;html=1;verticalAlign=middle;whiteSpace=wrap;rounded=0;fillStyle=solid;fontFamily=Helvetica;fontSize=8;fontColor=#504e4e;fontStyle=2;rotation=-30;" parent="1" vertex="1">
                    <mxGeometry x="335" y="1008" width="130" height="30" as="geometry"/>
                </mxCell>
            </root>
        </mxGraphModel>
    </diagram>
</mxfile>